<?xml version="1.0" encoding="UTF-8" standalone="no"?>
<!-- Created with Inkscape (http://www.inkscape.org/) -->

<svg
   width="14.35109mm"
   height="11.80802mm"
   viewBox="0 0 14.35109 11.80802"
   version="1.1"
   id="svg141832"
   inkscape:version="1.2.2 (732a01da63, 2022-12-09)"
   sodipodi:docname="EngineTemp_active.svg"
   xmlns:inkscape="http://www.inkscape.org/namespaces/inkscape"
   xmlns:sodipodi="http://sodipodi.sourceforge.net/DTD/sodipodi-0.dtd"
   xmlns="http://www.w3.org/2000/svg"
   xmlns:svg="http://www.w3.org/2000/svg">
  <sodipodi:namedview
     id="namedview141834"
     pagecolor="#ffffff"
     bordercolor="#000000"
     borderopacity="0.25"
     inkscape:showpageshadow="2"
     inkscape:pageopacity="0.0"
     inkscape:pagecheckerboard="0"
     inkscape:deskcolor="#d1d1d1"
     inkscape:document-units="mm"
     showgrid="false"
     inkscape:zoom="6.4782828"
     inkscape:cx="42.295159"
     inkscape:cy="32.724721"
     inkscape:window-width="1920"
     inkscape:window-height="1017"
     inkscape:window-x="-8"
     inkscape:window-y="-8"
     inkscape:window-maximized="1"
     inkscape:current-layer="layer1" />
  <defs
     id="defs141829" />
  <g
     inkscape:label="Warstwa 1"
     inkscape:groupmode="layer"
     id="layer1"
     transform="translate(-113.06208,-108.45243)">
    <path
       style="fill:#ff0000;stroke-width:0.144393;fill-opacity:1"
       d="m 126.27234,117.28506 c 0.46415,-0.22694 1.13736,-0.85074 1.13736,-1.05388 0,-0.35562 -0.3873,-0.28201 -0.92549,0.1759 -0.70908,0.60329 -1.10952,0.59863 -2.17163,-0.0253 -0.46618,-0.27385 -1.07566,-0.52959 -1.35442,-0.56833 -0.59464,-0.0826 -1.22198,0.18847 -1.29729,0.56062 -0.0453,0.224 0.008,0.24704 0.36873,0.1586 0.81019,-0.19878 1.23393,-0.11702 2.01268,0.38836 0.82652,0.53638 1.6145,0.66501 2.23006,0.36402 z"
       id="path138623-7" />
    <path
       style="fill:#ff0000;stroke-width:0.144393;fill-opacity:1"
       d="m 116.05698,117.10538 c 0.36238,-0.26324 0.79602,-0.54849 0.96369,-0.63389 0.39322,-0.20028 1.10671,-0.19947 1.31787,10e-4 0.19594,0.18648 0.48653,0.0488 0.48653,-0.23055 0,-0.6507 -1.76505,-0.63015 -2.6315,0.0306 -1.21539,0.92689 -1.51224,0.9475 -2.27798,0.15811 -0.44559,-0.45935 -0.611,-0.55196 -0.74984,-0.41982 -0.42753,0.40688 0.86789,1.57263 1.74758,1.57263 0.32335,0 0.70424,-0.1594 1.14365,-0.47863 z"
       id="path138621-8" />
    <path
       style="fill:#ff0000;stroke-width:0.144393;fill-opacity:1"
       d="m 121.08224,117.70884 c 0.38253,-0.4385 0.33194,-1.13744 -0.11101,-1.53347 -0.33723,-0.30152 -0.37003,-0.43479 -0.37003,-1.50363 v -1.17278 h 0.85846 c 0.88174,0 1.24991,-0.16888 1.11229,-0.51019 -0.0552,-0.13692 -0.35713,-0.19413 -1.02452,-0.19413 h -0.94623 v -0.49302 -0.49303 h 0.85846 c 0.88174,0 1.24991,-0.16887 1.11229,-0.51019 -0.0552,-0.13691 -0.35713,-0.19413 -1.02452,-0.19413 h -0.94623 v -0.49302 -0.49302 h 0.85846 c 0.88174,0 1.24991,-0.16887 1.11229,-0.51019 -0.0552,-0.13692 -0.35713,-0.19413 -1.02452,-0.19413 -0.88193,0 -0.94638,-0.0215 -0.94849,-0.31694 -0.003,-0.44993 -0.22393,-0.72475 -0.50084,-0.62362 -0.20888,0.0763 -0.23695,0.52154 -0.23695,3.75783 0,3.1727 -0.0309,3.68258 -0.2275,3.75438 -0.35038,0.12797 -0.67941,0.84408 -0.57307,1.2473 0.0516,0.19558 0.26841,0.48633 0.48184,0.64611 0.46921,0.35126 1.15064,0.27597 1.53982,-0.17013 z"
       id="path138617-4" />
    <path
       style="fill:#ff0000;stroke-width:0.144393;fill-opacity:1"
       d="m 115.5971,120.10518 c 0.16767,-0.0854 0.60131,-0.37065 0.96368,-0.63389 0.88314,-0.64156 1.32922,-0.62443 2.18937,0.0841 1.07385,0.88452 1.60555,0.88839 2.92973,0.0213 0.9697,-0.63496 1.20273,-0.63009 2.38922,0.0499 1.23655,0.70865 1.98012,0.66191 2.93357,-0.18443 0.82889,-0.73577 0.28273,-1.02754 -0.57765,-0.3086 -0.60263,0.50357 -1.22447,0.54954 -1.83516,0.13569 -0.72036,-0.48817 -1.75204,-0.86333 -2.10553,-0.76566 -0.18096,0.05 -0.66204,0.30293 -1.06907,0.56207 -1.13227,0.72086 -1.4208,0.74435 -2.09492,0.17053 -1.29377,-1.10125 -2.03504,-1.09607 -3.51284,0.0245 -0.81051,0.61459 -1.27389,0.57874 -1.90785,-0.14761 -0.29821,-0.34166 -0.57964,-0.54277 -0.67833,-0.48472 -0.30391,0.17877 -0.17818,0.49613 0.42337,1.06864 0.46934,0.44667 0.70142,0.56345 1.1198,0.56345 0.29028,0 0.66496,-0.0699 0.83261,-0.15526 z"
       id="path138563-9" />
    <text
       xml:space="preserve"
       style="font-size:4.44381px;font-family:Arial;-inkscape-font-specification:Arial;fill:#ff0000;fill-opacity:1;fill-rule:evenodd;stroke:none;stroke-width:0.481863;stroke-linecap:round;stroke-linejoin:round;stroke-dasharray:26.5247, 8.39959;stroke-dashoffset:65.782;stroke-opacity:1;paint-order:stroke fill markers"
       x="115.73081"
       y="110.79845"
       id="text660"
       transform="scale(0.98256208,1.0177474)"><tspan
         sodipodi:role="line"
         id="tspan658"
         style="fill:#ff0000;fill-opacity:1;stroke:none;stroke-width:0.481863;stroke-dasharray:26.5247, 8.39959;stroke-dashoffset:65.782;stroke-opacity:1"
         x="115.73081"
         y="110.79845">℃</tspan></text>
  </g>
</svg>
