<?xml version="1.0" encoding="UTF-8" standalone="no"?>
<!-- Created with Inkscape (http://www.inkscape.org/) -->

<svg
   width="16.397125mm"
   height="10.539606mm"
   viewBox="0 0 16.397125 10.539606"
   version="1.1"
   id="svg8971"
   inkscape:version="1.2.2 (732a01da63, 2022-12-09)"
   sodipodi:docname="CheckEngine_NotActive.svg"
   xmlns:inkscape="http://www.inkscape.org/namespaces/inkscape"
   xmlns:sodipodi="http://sodipodi.sourceforge.net/DTD/sodipodi-0.dtd"
   xmlns="http://www.w3.org/2000/svg"
   xmlns:svg="http://www.w3.org/2000/svg">
  <sodipodi:namedview
     id="namedview8973"
     pagecolor="#ffffff"
     bordercolor="#000000"
     borderopacity="0.25"
     inkscape:showpageshadow="2"
     inkscape:pageopacity="0.0"
     inkscape:pagecheckerboard="0"
     inkscape:deskcolor="#d1d1d1"
     inkscape:document-units="mm"
     showgrid="false"
     inkscape:zoom="8.4359982"
     inkscape:cx="11.024184"
     inkscape:cy="28.805127"
     inkscape:window-width="1920"
     inkscape:window-height="1017"
     inkscape:window-x="-8"
     inkscape:window-y="-8"
     inkscape:window-maximized="1"
     inkscape:current-layer="layer1" />
  <defs
     id="defs8968" />
  <g
     inkscape:label="Warstwa 1"
     inkscape:groupmode="layer"
     id="layer1"
     transform="translate(-64.89821,-101.53664)">
    <path
       id="path138123-4"
       style="fill:#999999;fill-opacity:1;stroke-width:0.144393"
       d="M 73.148352 101.53716 C 72.942349 101.53798 72.728713 101.53964 72.510148 101.54232 L 69.412663 101.58056 L 69.412663 101.93248 C 69.412663 102.26608 69.461402 102.28704 70.337671 102.32677 C 71.20895 102.36627 71.262679 102.38898 71.262679 102.71435 C 71.262679 103.04948 71.230304 103.05954 70.182125 103.05954 C 69.025096 103.05954 68.746554 103.18797 68.746554 103.72152 C 68.746554 104.02317 68.686087 104.04553 67.869088 104.04553 C 66.672079 104.04553 66.526534 104.20727 66.526534 105.53485 C 66.526534 106.3587 66.48026 106.58129 66.31001 106.58129 C 66.14008 106.58129 66.084711 106.31733 66.051111 105.34881 C 66.011511 104.20678 65.986404 104.1192 65.712114 104.15922 C 65.073094 104.25242 64.89821 104.68565 64.89821 106.17408 C 64.89821 107.00885 64.957295 107.56728 65.046005 107.56728 C 65.134805 107.56728 65.194316 108.13079 65.194316 108.97598 L 65.194316 110.38468 L 65.638217 110.38468 L 66.082117 110.38468 L 66.082117 108.97598 C 66.082117 107.81777 66.121806 107.56728 66.304326 107.56728 C 66.483316 107.56728 66.526534 107.78765 66.526534 108.70364 C 66.526534 110.38141 66.530134 110.38468 68.365182 110.38468 L 69.897905 110.38468 L 70.469446 111.23062 L 71.040471 112.07605 L 74.518811 112.04039 L 77.997152 112.00422 L 78.040043 110.84253 C 78.078743 109.79622 78.112227 109.68033 78.373356 109.68033 C 78.618426 109.68033 78.663261 109.77881 78.663261 110.3144 L 78.663261 110.94795 L 79.850786 110.94795 C 81.009255 110.94795 81.04274 110.93827 81.19799 110.5609 C 81.37197 110.13748 81.295373 106.13132 81.104973 105.69504 C 81.011173 105.48001 80.839135 105.44872 79.940186 105.48369 L 78.88547 105.52503 L 78.811056 106.0883 C 78.752456 106.53437 78.675402 106.65157 78.441053 106.65157 C 78.180203 106.65157 78.140055 106.54363 78.100505 105.74155 C 78.075805 105.24093 77.984456 104.74945 77.897417 104.64963 C 77.807917 104.54697 77.42529 104.46824 77.01685 104.46824 L 76.29493 104.46824 L 76.29493 103.98662 C 76.29493 103.11848 76.218522 103.05954 75.095004 103.05954 C 74.105415 103.05954 74.074911 103.04919 74.074911 102.70763 C 74.074911 102.37521 74.120017 102.35519 74.878996 102.35519 C 75.565935 102.35519 75.697483 102.31242 75.781783 102.05961 C 75.836083 101.89687 75.81896 101.70508 75.74406 101.63379 C 75.676772 101.56974 74.590374 101.53137 73.148352 101.53716 z M 69.782666 104.04605 L 72.594898 104.04605 L 75.407129 104.04605 L 75.407129 104.51062 C 75.407129 105.14043 75.63514 105.31367 76.465979 105.31367 L 77.170329 105.31367 L 77.213737 106.3348 L 77.257146 107.35644 L 78.195073 107.3983 C 79.264502 107.4465 79.551579 107.3003 79.551579 106.70532 C 79.551579 106.37215 79.614043 106.29966 79.904012 106.29966 C 80.369702 106.29966 80.434823 106.57038 80.437313 108.51813 L 80.43938 110.10304 L 80.004265 110.10304 C 79.608325 110.10304 79.564957 110.05565 79.523157 109.57491 L 79.477165 109.04678 L 78.367155 109.04678 L 77.257146 109.04678 L 77.214254 110.13818 L 77.170846 111.23011 L 74.105917 111.22907 L 71.040988 111.22804 L 70.473064 110.38933 L 70.473064 110.38881 L 69.905656 109.55062 L 68.696945 109.5098 L 67.488233 109.46897 L 67.488233 107.21536 L 67.488233 104.96124 L 68.63545 104.92041 L 69.782666 104.87907 L 69.782666 104.46256 L 69.782666 104.04605 z " />
  </g>
  <g
     inkscape:groupmode="layer"
     id="layer4"
     inkscape:label="Warstwa 2" />
</svg>
