<?xml version="1.0" encoding="UTF-8" standalone="no"?>
<!-- Created with Inkscape (http://www.inkscape.org/) -->

<svg
   width="12.662264mm"
   height="12.085338mm"
   viewBox="0 0 12.662264 12.085338"
   version="1.1"
   id="svg11045"
   inkscape:version="1.2.2 (732a01da63, 2022-12-09)"
   sodipodi:docname="CruiseControl_NotActive.svg"
   xmlns:inkscape="http://www.inkscape.org/namespaces/inkscape"
   xmlns:sodipodi="http://sodipodi.sourceforge.net/DTD/sodipodi-0.dtd"
   xmlns="http://www.w3.org/2000/svg"
   xmlns:svg="http://www.w3.org/2000/svg">
  <sodipodi:namedview
     id="namedview11047"
     pagecolor="#ffffff"
     bordercolor="#000000"
     borderopacity="0.25"
     inkscape:showpageshadow="2"
     inkscape:pageopacity="0.0"
     inkscape:pagecheckerboard="0"
     inkscape:deskcolor="#d1d1d1"
     inkscape:document-units="mm"
     showgrid="false"
     inkscape:zoom="3.2391414"
     inkscape:cx="-87.986279"
     inkscape:cy="39.516645"
     inkscape:window-width="1920"
     inkscape:window-height="1017"
     inkscape:window-x="-8"
     inkscape:window-y="-8"
     inkscape:window-maximized="1"
     inkscape:current-layer="layer1" />
  <defs
     id="defs11042" />
  <g
     inkscape:label="Warstwa 1"
     inkscape:groupmode="layer"
     id="layer1"
     transform="translate(-85.807604,-137.16579)">
    <path
       id="path138471-4"
       style="fill:#999999;fill-opacity:1;stroke-width:0.144393"
       d="m 86.179236,137.16579 c -0.01247,4e-5 -0.02462,0.001 -0.03617,0.003 -0.496838,0.0678 -0.434322,0.56247 0.137976,1.09037 0.48993,0.45194 0.507293,0.49689 0.279053,0.73691 -0.23048,0.24238 -0.216479,0.2558 0.268201,0.2558 0.741948,0 0.922927,0.23308 0.559139,0.71933 -1.823866,2.4377 -1.441797,5.85016 0.875399,7.82072 1.522676,1.29487 3.831886,1.78714 5.806364,1.23765 2.889114,-0.80402 4.822538,-3.70732 4.3217,-6.49005 -0.22317,-1.23994 -0.829862,-2.36577 -1.74408,-3.23701 -2.076296,-1.97867 -5.280844,-2.26751 -7.768518,-0.70073 -0.653408,0.41152 -0.887801,0.29086 -0.887801,-0.4563 0,-0.46127 -0.01411,-0.47464 -0.268718,-0.25529 -0.252198,0.21721 -0.299771,0.20117 -0.774629,-0.2651 -0.293813,-0.28848 -0.580828,-0.45945 -0.767912,-0.45888 z m 6.767545,1.418 c 0.0111,-3.3e-4 0.0231,-1e-5 0.03566,5.2e-4 0.06699,0.003 0.155033,0.0171 0.271818,0.0372 0.55581,0.0957 1.824927,0.62406 2.257227,0.93948 0.294538,0.21492 0.294374,0.21751 -0.03927,0.55552 -0.32542,0.32966 -0.327197,0.34693 -0.06098,0.57619 0.25762,0.22189 0.290997,0.21916 0.543637,-0.0465 0.147938,-0.15558 0.320782,-0.28319 0.384472,-0.28319 0.16018,0 0.981811,1.65897 1.098641,2.21847 0.0936,0.44818 0.08401,0.45785 -0.434599,0.45785 -0.466448,0 -0.529683,0.0424 -0.529683,0.35243 0,0.29819 0.06867,0.35192 0.448551,0.35192 0.24676,0 0.483893,0.0869 0.526583,0.19275 0.10411,0.25819 -0.426622,1.66688 -0.83199,2.20865 l -0.325045,0.4346 -0.356051,-0.31832 c -0.331938,-0.29679 -0.3726,-0.30262 -0.60203,-0.0842 -0.22942,0.21834 -0.228318,0.25336 0.02067,0.51522 0.37958,0.39918 0.222679,0.62829 -0.736389,1.07487 -0.997268,0.46435 -2.721367,0.6023 -3.694865,0.29559 -0.766878,-0.24162 -1.45661,-0.58631 -1.67535,-0.83716 -0.136908,-0.157 -0.110848,-0.25335 0.12299,-0.45475 0.27868,-0.24002 0.281696,-0.27158 0.04858,-0.51677 -0.24121,-0.25366 -0.257259,-0.25276 -0.575159,0.0315 l -0.327628,0.29249 -0.307475,-0.37207 c -0.34985,-0.42328 -0.912089,-1.77075 -0.912089,-2.18591 0,-0.21325 0.101381,-0.27647 0.443901,-0.27647 0.374958,0 0.444417,-0.0546 0.444417,-0.35192 0,-0.30018 -0.06844,-0.35243 -0.460954,-0.35243 -0.451628,0 -0.458316,-0.0101 -0.358118,-0.52813 0.11655,-0.60247 0.528218,-1.52162 0.867648,-1.93683 0.22334,-0.2732 0.26436,-0.24998 1.346688,0.76894 l 1.116211,1.05058 -0.09043,0.72916 c -0.0689,0.55796 -0.02879,0.82764 0.170532,1.14876 0.762028,1.22772 2.563614,1.16626 3.257682,-0.1111 0.75309,-1.38601 -0.806007,-2.98558 -2.347143,-2.40812 -0.21162,0.0793 -0.516318,-0.13669 -1.369426,-0.971 -0.603338,-0.59005 -1.096574,-1.11902 -1.096574,-1.17564 0,-0.15865 1.794099,-0.90882 2.293917,-0.95912 0.40432,-0.0407 0.44817,-0.004 0.49041,0.41342 0.0384,0.37917 0.10851,0.45785 0.40721,0.45785 0.313,0 0.360701,-0.0651 0.360701,-0.48989 0,-0.33424 0.0067,-0.43948 0.173116,-0.44442 z m -0.585494,3.6344 c 0.719877,-0.004 1.424713,0.75166 1.244886,1.43351 -0.24812,0.9409 -1.391657,1.2635 -2.097547,0.59169 -0.690899,-0.65753 -0.34172,-1.76687 0.629419,-1.99884 0.07382,-0.0176 0.148772,-0.0259 0.223242,-0.0264 z" />
  </g>
  <g
     inkscape:groupmode="layer"
     id="layer8"
     inkscape:label="Warstwa 2"
     transform="translate(-85.807604,-137.16579)" />
</svg>
