<?xml version="1.0" encoding="UTF-8" standalone="no"?>
<!-- Created with Inkscape (http://www.inkscape.org/) -->

<svg
   width="11.974009mm"
   height="11.565432mm"
   viewBox="0 0 11.974009 11.565432"
   version="1.1"
   id="svg47453"
   inkscape:version="1.2.2 (732a01da63, 2022-12-09)"
   sodipodi:docname="DoorOpen_active.svg"
   xmlns:inkscape="http://www.inkscape.org/namespaces/inkscape"
   xmlns:sodipodi="http://sodipodi.sourceforge.net/DTD/sodipodi-0.dtd"
   xmlns="http://www.w3.org/2000/svg"
   xmlns:svg="http://www.w3.org/2000/svg">
  <sodipodi:namedview
     id="namedview47455"
     pagecolor="#ffffff"
     bordercolor="#000000"
     borderopacity="0.25"
     inkscape:showpageshadow="2"
     inkscape:pageopacity="0.0"
     inkscape:pagecheckerboard="0"
     inkscape:deskcolor="#d1d1d1"
     inkscape:document-units="mm"
     showgrid="false"
     inkscape:zoom="4.2179991"
     inkscape:cx="13.394977"
     inkscape:cy="42.674262"
     inkscape:window-width="1920"
     inkscape:window-height="1017"
     inkscape:window-x="-8"
     inkscape:window-y="-8"
     inkscape:window-maximized="1"
     inkscape:current-layer="layer1" />
  <defs
     id="defs47450" />
  <g
     inkscape:label="Warstwa 1"
     inkscape:groupmode="layer"
     id="layer1"
     transform="translate(-108.6259,-101.02374)"
     style="display:inline">
    <path
       id="path138477-0"
       style="fill:#ff0000;stroke-width:0.144393;fill-opacity:1"
       d="M 114.53148 101.02374 C 112.83314 101.02374 111.13468 101.08368 111.0087 101.20357 C 110.88939 101.31711 110.83093 101.95407 110.83093 103.14351 L 110.83093 104.91394 L 109.63721 106.46062 C 108.67486 107.70712 108.49382 108.0174 108.70445 108.05845 C 108.87637 108.09195 109.23893 107.81446 109.76433 107.24817 C 110.20362 106.77468 110.62342 106.38724 110.69709 106.38724 C 110.77269 106.38724 110.83093 107.66321 110.83093 109.31729 C 110.83093 111.40832 110.88198 112.29569 111.0087 112.41633 C 111.21705 112.61462 117.73415 112.65813 118.05685 112.46335 C 118.20888 112.37165 118.24896 111.69114 118.23823 109.37724 C 118.23023 107.7445 118.27927 106.37579 118.34675 106.33608 C 118.41425 106.29638 118.85314 106.67187 119.32189 107.17065 C 120.07462 107.97156 120.59985 108.29886 120.59985 107.96699 C 120.59985 107.90619 120.06719 107.16381 119.41594 106.31696 L 118.23152 104.777 L 118.23152 103.07478 C 118.23152 101.93859 118.17274 101.31639 118.05427 101.20357 C 117.92829 101.08368 116.22982 101.02374 114.53148 101.02374 z M 114.53148 103.42928 C 116.32241 103.42928 117.78773 103.47656 117.78761 103.5347 C 117.78747 103.5928 117.5659 104.17945 117.29566 104.83798 L 116.80421 106.03532 L 114.55577 106.07408 L 112.30681 106.11284 L 112.14817 105.72216 C 111.67294 104.55057 111.27535 103.53019 111.27535 103.48302 C 111.27535 103.45352 112.74055 103.42928 114.53148 103.42928 z M 117.71372 105.04933 L 117.75661 106.21154 C 117.78031 106.85071 117.78031 107.88788 117.75661 108.51682 L 117.71372 109.66042 L 117.38092 109.0062 C 117.12612 108.5056 117.04761 108.10339 117.04761 107.29364 C 117.04761 106.46575 117.12039 106.10599 117.38092 105.64206 L 117.71372 105.04933 z M 111.34615 105.11961 C 111.38515 105.11961 111.55168 105.37039 111.71615 105.6772 C 112.17513 106.53344 112.13531 108.37095 111.64122 109.13436 L 111.2769 109.69763 L 111.27587 107.40836 C 111.27587 106.1494 111.30715 105.11961 111.34615 105.11961 z M 112.27426 108.71164 L 114.52683 108.71164 L 116.77941 108.71164 L 117.28377 109.90072 C 117.56104 110.55484 117.78761 111.14149 117.78761 111.204 C 117.78761 111.2665 116.31809 111.31769 114.52166 111.31769 C 111.47821 111.31769 111.26089 111.3009 111.33788 111.07119 C 111.38338 110.93561 111.61267 110.34897 111.84741 109.76791 L 112.27426 108.71164 z " />
  </g>
  <g
     inkscape:groupmode="layer"
     id="layer7"
     inkscape:label="Warstwa 3" />
</svg>
