<?xml version="1.0" encoding="UTF-8" standalone="no"?>
<!-- Created with Inkscape (http://www.inkscape.org/) -->

<svg
   width="12.847176mm"
   height="11.549246mm"
   viewBox="0 0 12.847176 11.549246"
   version="1.1"
   id="svg44216"
   inkscape:version="1.2.2 (732a01da63, 2022-12-09)"
   sodipodi:docname="ESP_active.svg"
   xmlns:inkscape="http://www.inkscape.org/namespaces/inkscape"
   xmlns:sodipodi="http://sodipodi.sourceforge.net/DTD/sodipodi-0.dtd"
   xmlns="http://www.w3.org/2000/svg"
   xmlns:svg="http://www.w3.org/2000/svg">
  <sodipodi:namedview
     id="namedview44218"
     pagecolor="#ffffff"
     bordercolor="#000000"
     borderopacity="0.25"
     inkscape:showpageshadow="2"
     inkscape:pageopacity="0.0"
     inkscape:pagecheckerboard="0"
     inkscape:deskcolor="#d1d1d1"
     inkscape:document-units="mm"
     showgrid="false"
     inkscape:zoom="8.4359982"
     inkscape:cx="1.7188245"
     inkscape:cy="40.896168"
     inkscape:window-width="1920"
     inkscape:window-height="1017"
     inkscape:window-x="-8"
     inkscape:window-y="-8"
     inkscape:window-maximized="1"
     inkscape:current-layer="layer1" />
  <defs
     id="defs44213" />
  <g
     inkscape:label="Warstwa 1"
     inkscape:groupmode="layer"
     id="layer1"
     transform="translate(-30.479639,-150.70925)">
    <path
       style="fill:#ffd400;stroke-width:0.144393;fill-opacity:1"
       d="m 42.842897,162.15605 c -0.0602,-0.0573 -0.68738,-0.33239 -1.39377,-0.61138 -0.97941,-0.38681 -1.28435,-0.57112 -1.28435,-0.77626 0,-0.20597 0.12143,-0.27835 0.51804,-0.30881 1.25824,-0.0966 2.06857,-0.33403 2.3652,-0.69293 0.41074,-0.49696 0.37612,-0.7938 -0.16037,-1.37534 -0.4008,-0.43445 -0.54615,-0.49792 -1.14012,-0.49792 h -0.68076 l 0.54809,0.53418 c 0.87917,0.85688 0.82049,0.91238 -1.21535,1.14974 -1.51478,0.17661 -1.93865,0.40278 -1.93215,1.03095 0.006,0.57554 0.22589,0.84798 1.04373,1.29289 0.57083,0.31054 0.83035,0.35583 2.04746,0.35731 0.76657,9.9e-4 1.34453,-0.0452 1.28435,-0.10243 z"
       id="path138673-9" />
    <path
       id="path138717-5"
       style="fill:#ffd400;stroke-width:0.144393;fill-opacity:1"
       d="M 33.762643 150.83482 L 33.006617 151.82081 C 32.381997 152.63554 32.178575 152.8068 31.836145 152.8068 C 31.234317 152.8068 30.601134 153.83854 31.175204 153.88373 C 31.316614 153.89483 31.515277 153.91067 31.617037 153.91887 C 31.753897 153.92997 31.802039 154.3738 31.802039 155.6242 L 31.802039 157.31453 L 32.977161 157.31453 L 34.152283 157.31453 L 34.198275 156.7864 L 34.244267 156.25827 L 37.093706 156.21951 L 39.942627 156.18127 L 39.942627 156.74816 L 39.942627 157.31453 L 41.1224 157.31453 L 42.301656 157.31453 L 42.343514 155.58906 C 42.381814 153.99838 42.406429 153.8668 42.659257 153.90802 C 43.257057 154.00552 43.363028 153.83504 43.034428 153.30496 C 42.797538 152.92285 42.629091 152.8068 42.310441 152.8068 C 41.967963 152.8068 41.760299 152.63376 41.127051 151.82081 L 40.358623 150.83482 L 37.060633 150.83482 L 33.762643 150.83482 z M 34.220496 151.27304 L 37.074585 151.27304 L 39.928675 151.27304 L 40.37981 151.89677 C 40.62793 152.23999 40.830945 152.55697 40.830945 152.60112 C 40.830945 152.7118 33.502361 152.70323 33.385922 152.59234 C 33.334322 152.54324 33.501152 152.22631 33.756442 151.88799 L 34.220496 151.27304 z M 32.542045 153.21349 L 37.063216 153.21349 L 41.583871 153.21349 L 41.540463 154.23462 L 41.497054 155.25626 L 37.107658 155.28158 C 34.69367 155.29548 32.678952 155.26887 32.630412 155.22267 C 32.581912 155.17647 32.542045 154.70564 32.542045 154.17622 L 32.542045 153.21349 z M 33.134257 153.80829 L 33.134257 154.231 L 33.134257 154.65371 L 34.298011 154.65371 C 35.416657 154.65371 35.460691 154.64106 35.427141 154.33642 C 35.407941 154.1621 35.383797 153.97232 35.373397 153.91422 C 35.362997 153.85609 34.854803 153.80829 34.244267 153.80829 L 33.134257 153.80829 z M 38.79231 153.80829 L 38.727198 154.231 L 38.662085 154.65371 L 39.820154 154.65371 L 40.97874 154.65371 L 40.97874 154.231 L 40.97874 153.80829 L 39.885783 153.80829 L 38.79231 153.80829 z " />
    <path
       style="fill:#ffd400;stroke-width:0.144393;fill-opacity:1"
       d="m 35.046067,162.20455 c -0.0339,-0.0306 -0.49461,-0.2268 -1.02375,-0.43601 -1.60038,-0.63276 -1.92414,-0.80001 -1.92414,-0.99398 0,-0.22711 0.24453,-0.29735 1.47243,-0.42297 0.76963,-0.0787 1.03467,-0.17405 1.3691,-0.49233 0.44966,-0.42793 0.50544,-0.68861 0.24938,-1.16515 -0.28934,-0.53845 -0.75849,-0.79426 -1.46273,-0.79757 l -0.66597,-0.003 0.64735,0.56317 c 0.83489,0.72631 0.69137,0.92417 -0.76467,1.05421 -0.5868,0.0524 -1.31553,0.15581 -1.61943,0.22979 -1.25038,0.30437 -1.08114,1.53696 0.30686,2.23481 0.4268,0.21458 0.853,0.27367 2.00947,0.27857 0.80726,0.003 1.44001,-0.0188 1.4061,-0.0494 z"
       id="path138671-5" />
  </g>
  <g
     inkscape:groupmode="layer"
     id="layer4"
     inkscape:label="Warstwa 2" />
</svg>
