<?xml version="1.0" encoding="UTF-8" standalone="no"?>
<!-- Created with Inkscape (http://www.inkscape.org/) -->

<svg
   width="13.83903mm"
   height="11.0907mm"
   viewBox="0 0 13.83903 11.0907"
   version="1.1"
   id="svg41116"
   inkscape:version="1.2.2 (732a01da63, 2022-12-09)"
   sodipodi:docname="Imobilizer_NotFault.svg"
   xmlns:inkscape="http://www.inkscape.org/namespaces/inkscape"
   xmlns:sodipodi="http://sodipodi.sourceforge.net/DTD/sodipodi-0.dtd"
   xmlns="http://www.w3.org/2000/svg"
   xmlns:svg="http://www.w3.org/2000/svg">
  <sodipodi:namedview
     id="namedview41118"
     pagecolor="#ffffff"
     bordercolor="#000000"
     borderopacity="0.25"
     inkscape:showpageshadow="2"
     inkscape:pageopacity="0.0"
     inkscape:pagecheckerboard="0"
     inkscape:deskcolor="#d1d1d1"
     inkscape:document-units="mm"
     showgrid="false"
     inkscape:zoom="5.9651515"
     inkscape:cx="10.812802"
     inkscape:cy="51.968504"
     inkscape:window-width="1920"
     inkscape:window-height="1017"
     inkscape:window-x="-8"
     inkscape:window-y="-8"
     inkscape:window-maximized="1"
     inkscape:current-layer="layer1" />
  <defs
     id="defs41113" />
  <g
     inkscape:label="Warstwa 1"
     inkscape:groupmode="layer"
     id="layer1"
     transform="translate(-95.27403,-144.19659)">
    <path
       style="fill:#999999;stroke-width:0.144393;fill-opacity:1"
       d="m 103.37062,147.87016 c 0.13861,-0.28974 0.46801,-0.76613 0.732,-1.05865 0.78788,-0.87297 0.59645,-2.04232 -0.39913,-2.43822 -0.8866,-0.35255 -2.06524,-0.15982 -2.57084,0.42038 -0.1841,0.21127 -0.17168,0.27711 0.10129,0.53692 0.29403,0.27981 0.33745,0.28399 0.7891,0.0758 1.05306,-0.48539 1.5478,0.34913 0.76101,1.28365 -0.56002,0.66515 -0.77552,1.0594 -0.77552,1.4188 0,0.2426 0.0923,0.29075 0.55504,0.28955 0.49695,-0.001 0.58142,-0.0566 0.80705,-0.52824 z"
       id="path138209-0" />
    <path
       style="fill:#999999;stroke-width:0.144393;fill-opacity:1"
       d="m 103.29142,150.28528 c 0.22752,-0.3305 0.2311,-0.40658 0.0347,-0.73954 -0.16991,-0.28811 -0.33225,-0.37114 -0.72558,-0.37114 -0.39332,0 -0.55566,0.083 -0.72558,0.37114 -0.19636,0.33296 -0.19278,0.40904 0.0347,0.73954 0.17877,0.25965 0.38269,0.36838 0.69084,0.36838 0.30816,0 0.51208,-0.10873 0.69085,-0.36838 z"
       id="path138181-3" />
    <path
       id="path138115-1"
       style="fill:#999999;stroke-width:0.142306;fill-opacity:1"
       d="M 103.77532 150.19519 L 103.75362 150.81996 C 103.74182 151.16356 103.72564 151.50738 103.71744 151.58374 C 103.70744 151.67184 102.5436 151.71954 100.52952 151.71448 C 97.047849 151.70548 96.558933 151.79278 95.825418 152.55267 L 95.460582 152.93042 L 96.115322 153.46941 L 96.770063 154.00839 L 100.26804 154.04508 L 103.7655 154.08229 L 103.79134 154.56805 C 103.80554 154.8353 103.82408 155.10605 103.83268 155.16956 C 103.84168 155.23296 104.65743 155.26411 105.64652 155.23881 C 107.27941 155.19701 107.49314 155.16116 107.97248 154.84814 L 107.97248 154.84865 C 108.73501 154.35075 109.09954 153.65402 109.09954 152.69426 C 109.09954 151.73444 108.73508 151.03774 107.97248 150.53987 C 107.47906 150.21774 107.32443 150.19519 105.60983 150.19519 L 103.77532 150.19519 z M 104.90497 151.07627 C 105.07666 151.07627 105.11684 151.38311 105.11684 152.68806 C 105.11684 154.2406 105.01282 154.65004 104.71325 154.27918 C 104.54972 154.07675 104.45934 151.77581 104.59853 151.35843 C 104.65023 151.2033 104.78835 151.07627 104.90497 151.07627 z M 107.62625 152.20334 C 107.6286 152.20314 107.63078 152.20334 107.63297 152.20334 C 107.70277 152.20334 107.8647 152.30275 107.99263 152.42451 C 108.12055 152.54626 108.22518 152.70021 108.22518 152.76661 C 108.22518 152.83301 108.12055 152.98696 107.99263 153.10871 C 107.8647 153.23046 107.70274 153.32988 107.63297 153.32988 C 107.56317 153.32988 107.40122 153.23046 107.2733 153.10871 C 107.14537 152.98696 107.04075 152.83301 107.04075 152.76661 C 107.04075 152.70021 107.14537 152.54626 107.2733 152.42451 C 107.39722 152.30657 107.5532 152.20929 107.62625 152.20334 z M 98.673306 152.78986 C 99.088704 152.78867 99.583085 152.7923 100.16882 152.79917 C 102.93762 152.83157 103.41462 152.86802 103.41462 153.04825 C 103.41462 153.22858 102.93326 153.265 100.13161 153.29733 C 97.853147 153.32363 96.818072 153.28742 96.747842 153.1795 C 96.558806 152.88841 96.873247 152.79505 98.673306 152.78986 z " />
  </g>
  <g
     inkscape:groupmode="layer"
     id="layer3"
     inkscape:label="Warstwa 2" />
</svg>
