<?xml version="1.0" encoding="UTF-8" standalone="no"?>
<!-- Created with Inkscape (http://www.inkscape.org/) -->

<svg
   width="16.573025mm"
   height="6.0544224mm"
   viewBox="0 0 16.573025 6.0544224"
   version="1.1"
   id="svg11080"
   inkscape:version="1.2.2 (732a01da63, 2022-12-09)"
   sodipodi:docname="OilPressure_NotActive.svg"
   xmlns:inkscape="http://www.inkscape.org/namespaces/inkscape"
   xmlns:sodipodi="http://sodipodi.sourceforge.net/DTD/sodipodi-0.dtd"
   xmlns="http://www.w3.org/2000/svg"
   xmlns:svg="http://www.w3.org/2000/svg">
  <sodipodi:namedview
     id="namedview11082"
     pagecolor="#ffffff"
     bordercolor="#000000"
     borderopacity="0.25"
     inkscape:showpageshadow="2"
     inkscape:pageopacity="0.0"
     inkscape:pagecheckerboard="0"
     inkscape:deskcolor="#d1d1d1"
     inkscape:document-units="mm"
     showgrid="false"
     inkscape:zoom="3.2391414"
     inkscape:cx="-98.791612"
     inkscape:cy="26.241522"
     inkscape:window-width="1920"
     inkscape:window-height="1017"
     inkscape:window-x="-8"
     inkscape:window-y="-8"
     inkscape:window-maximized="1"
     inkscape:current-layer="layer1" />
  <defs
     id="defs11077" />
  <g
     inkscape:label="Warstwa 1"
     inkscape:groupmode="layer"
     id="layer1"
     style="display:inline"
     transform="translate(-78.083675,-123.63586)">
    <path
       id="path138351-6"
       style="fill:#999999;fill-opacity:1;stroke-width:0.144;stroke-dasharray:none"
       d="M 78.2139 123.63586 C 78.02951 123.63286 78.04614 126.5591 78.23147 126.73335 C 78.30307 126.80065 78.9263 127.05339 79.616398 127.29507 C 80.306496 127.53675 80.92158 127.80997 80.98324 127.90227 C 81.04494 127.99457 81.096195 128.43502 81.097445 128.8805 L 81.099512 129.69027 L 84.912716 129.69027 L 88.725403 129.69027 L 91.197603 127.33072 L 93.669804 124.97118 L 93.393852 124.62701 L 93.117899 124.28233 L 90.729932 125.2492 L 88.34248 126.21606 L 87.676888 125.76958 C 87.075658 125.36626 86.906618 125.32361 85.92299 125.32361 C 84.930002 125.32361 84.827191 125.29641 84.750452 125.01717 C 84.631563 124.5845 84.745752 124.47819 85.327161 124.47819 C 85.77175 124.47819 85.836173 124.43369 85.836173 124.12627 L 85.836173 123.77384 L 84.282263 123.77384 C 82.733477 123.77384 82.727836 123.77483 82.727836 124.11748 C 82.727836 124.41291 82.805706 124.46747 83.282841 124.50506 C 83.763959 124.54296 83.838363 124.59566 83.838363 124.9009 C 83.838363 125.235 83.789951 125.25513 82.900952 125.29519 C 82.079474 125.33219 81.955074 125.30419 81.889644 125.06575 C 81.848644 124.91639 81.637382 124.71584 81.420422 124.61978 C 80.957934 124.41501 78.429898 123.63928 78.2139 123.63586 z M 78.81438 124.69626 L 81.047835 125.3293 L 81.028715 126.85685 L 78.795259 126.22382 L 78.81438 124.69626 z M 91.192436 126.02641 C 91.265556 126.02941 90.64574 126.68618 89.779602 127.52193 L 88.153861 129.09082 L 84.932353 129.09082 L 81.710327 129.09082 L 81.710327 127.61133 L 81.710327 126.13235 L 84.24609 126.13235 L 86.781335 126.13235 L 87.52806 126.64291 L 88.274784 127.15347 L 89.617855 126.62844 C 90.356603 126.33957 91.061024 126.06961 91.183134 126.02848 C 91.186934 126.02748 91.190036 126.02641 91.192436 126.02641 z " />
    <path
       style="fill:#999999;fill-opacity:1;stroke-width:0.144393"
       d="m 94.406481,128.63175 c 0.22468,-0.21383 0.28857,-0.40521 0.22935,-0.68702 -0.0856,-0.40712 -0.84297,-1.69298 -0.99723,-1.69298 -0.10649,0 -0.80391,1.21741 -0.93551,1.63301 -0.0606,0.19137 0.0152,0.42614 0.21601,0.66911 0.38357,0.46407 1.04519,0.49872 1.48738,0.0779 z"
       id="path138357-9" />
  </g>
  <g
     inkscape:groupmode="layer"
     id="layer5"
     inkscape:label="Warstwa 2"
     style="display:inline"
     transform="translate(-78.083675,-123.63586)" />
</svg>
