<?xml version="1.0" encoding="UTF-8" standalone="no"?>
<!-- Created with Inkscape (http://www.inkscape.org/) -->

<svg
   width="13.613749mm"
   height="9.36656mm"
   viewBox="0 0 13.613749 9.36656"
   version="1.1"
   id="svg2407"
   inkscape:version="1.2.2 (732a01da63, 2022-12-09)"
   sodipodi:docname="ParkingBreak_active.svg"
   xmlns:inkscape="http://www.inkscape.org/namespaces/inkscape"
   xmlns:sodipodi="http://sodipodi.sourceforge.net/DTD/sodipodi-0.dtd"
   xmlns="http://www.w3.org/2000/svg"
   xmlns:svg="http://www.w3.org/2000/svg">
  <sodipodi:namedview
     id="namedview2409"
     pagecolor="#ffffff"
     bordercolor="#000000"
     borderopacity="0.25"
     inkscape:showpageshadow="2"
     inkscape:pageopacity="0.0"
     inkscape:pagecheckerboard="0"
     inkscape:deskcolor="#d1d1d1"
     inkscape:document-units="mm"
     showgrid="false"
     inkscape:zoom="6.4782828"
     inkscape:cx="-7.1006471"
     inkscape:cy="49.858892"
     inkscape:window-width="1920"
     inkscape:window-height="1017"
     inkscape:window-x="-8"
     inkscape:window-y="-8"
     inkscape:window-maximized="1"
     inkscape:current-layer="layer1" />
  <defs
     id="defs2404" />
  <g
     inkscape:label="Warstwa 1"
     inkscape:groupmode="layer"
     id="layer1"
     transform="translate(-40.569364,-83.491655)">
    <path
       id="path138585-8"
       style="fill:#ff0202;fill-opacity:1;stroke-width:0.144393"
       d="m 47.439568,83.492217 c -2.047712,-0.02626 -3.58486,0.868202 -4.488615,2.615342 -0.877779,1.69692 -0.596478,3.71961 0.709,5.1015 0.80571,0.85286 1.385752,1.20675 2.437061,1.48673 1.086299,0.2893 2.269892,0.19028 3.376021,-0.28215 0.995429,-0.42515 1.872521,-1.22883 2.400371,-2.19987 0.245079,-0.45084 0.349408,-0.92914 0.394808,-1.81022 0.0797,-1.5461 -0.276062,-2.52355 -1.272791,-3.494881 -0.994529,-0.969179 -1.903426,-1.350866 -3.356384,-1.410766 -0.06711,-0.0028 -0.133416,-0.0048 -0.199471,-0.0057 z m -0.375171,0.876432 c 0.145667,-0.0012 0.30738,0.007 0.500228,0.0217 3.281336,0.250669 4.91104,3.727505 2.888712,6.162415 -1.131249,1.36202 -3.142081,1.81428 -4.79764,1.079 -1.551248,-0.68895 -2.386474,-2.07171 -2.260844,-3.74292 0.11789,-1.56811 0.82094,-2.50654 2.389519,-3.189987 0.550762,-0.23997 0.843023,-0.326702 1.280025,-0.330213 z" />
    <path
       style="fill:#ff0202;fill-opacity:1;stroke-width:0.144393"
       d="m 53.265301,91.43008 c 0.62473,-1.08348 0.91552,-2.09764 0.9178,-3.20071 0.003,-1.44004 -0.59703,-3.10495 -1.4903,-4.13533 l -0.29271,-0.33763 -0.36654,0.32771 c -0.36315,0.32469 -0.3639,0.3304 -0.0808,0.61936 0.83383,0.85096 1.45181,2.82034 1.27747,4.07111 -0.12398,0.88947 -0.57757,2.02891 -1.0499,2.63736 l -0.3769,0.4855 0.32505,0.25114 c 0.17877,0.13812 0.39461,0.22907 0.47964,0.20209 0.0851,-0.027 0.38076,-0.44125 0.65714,-0.9206 z"
       id="path138613-3" />
    <path
       style="fill:#ff0202;fill-opacity:1;stroke-width:0.144393"
       d="m 42.418421,91.21239 c -1.07729,-1.56412 -1.24968,-3.56875 -0.45232,-5.25973 0.22621,-0.47971 0.53699,-0.98047 0.69061,-1.11278 0.15363,-0.13232 0.27932,-0.305 0.27932,-0.38373 0,-0.17281 -0.44452,-0.65837 -0.60273,-0.65837 -0.26356,0 -1.30224,1.73855 -1.54172,2.58053 -0.38119,1.34022 -0.26075,3.25866 0.27527,4.38499 0.21933,0.46087 0.57025,1.05189 0.77981,1.31337 l 0.38102,0.47542 0.34456,-0.30806 0.34455,-0.30806 z"
       id="path138611-1" />
    <text
       xml:space="preserve"
       style="font-size:8.46667px;font-family:Arial;-inkscape-font-specification:Arial;fill:#ff0202;fill-opacity:1;stroke:none;stroke-width:1.3;stroke-linecap:round;stroke-linejoin:round;paint-order:stroke fill markers"
       x="44.803219"
       y="91.08622"
       id="text2683"><tspan
         sodipodi:role="line"
         id="tspan2681"
         style="font-size:8.46667px;fill:#ff0202;fill-opacity:1;stroke:none;stroke-width:1.3"
         x="44.803219"
         y="91.08622">P</tspan></text>
  </g>
  <g
     inkscape:groupmode="layer"
     id="layer2"
     inkscape:label="Warstwa 2"
     transform="translate(-40.569364,-83.491655)" />
</svg>
