<?xml version="1.0" encoding="UTF-8" standalone="no"?>
<!-- Created with Inkscape (http://www.inkscape.org/) -->

<svg
   width="12.583111mm"
   height="12.934772mm"
   viewBox="0 0 12.583111 12.934772"
   version="1.1"
   id="svg6979"
   inkscape:version="1.2.2 (732a01da63, 2022-12-09)"
   sodipodi:docname="SeatBelt_NotActive.svg"
   xmlns:inkscape="http://www.inkscape.org/namespaces/inkscape"
   xmlns:sodipodi="http://sodipodi.sourceforge.net/DTD/sodipodi-0.dtd"
   xmlns="http://www.w3.org/2000/svg"
   xmlns:svg="http://www.w3.org/2000/svg">
  <sodipodi:namedview
     id="namedview6981"
     pagecolor="#ffffff"
     bordercolor="#000000"
     borderopacity="0.25"
     inkscape:showpageshadow="2"
     inkscape:pageopacity="0.0"
     inkscape:pagecheckerboard="0"
     inkscape:deskcolor="#d1d1d1"
     inkscape:document-units="mm"
     showgrid="false"
     inkscape:zoom="4.2179991"
     inkscape:cx="83.68897"
     inkscape:cy="54.528224"
     inkscape:window-width="1920"
     inkscape:window-height="1017"
     inkscape:window-x="-8"
     inkscape:window-y="-8"
     inkscape:window-maximized="1"
     inkscape:current-layer="layer1" />
  <defs
     id="defs6976" />
  <g
     inkscape:label="Warstwa 1"
     inkscape:groupmode="layer"
     id="layer1"
     transform="translate(-89.5149,-125.88746)">
    <path
       style="fill:#999999;fill-opacity:1;stroke-width:0.144393"
       d="m 100.22118,129.45924 c 0.62664,-0.46241 1.13756,-0.87443 1.13537,-0.91561 -0.002,-0.0412 -0.19342,-0.29228 -0.42495,-0.55801 l -0.42096,-0.48314 -0.43668,0.27185 c -0.24017,0.14951 -0.95188,0.65217 -1.58158,1.11702 -0.97194,0.7175 -1.10689,0.86647 -0.89321,0.98605 0.13844,0.0775 0.42393,0.27689 0.63442,0.44314 0.30261,0.23901 0.43142,0.26849 0.61547,0.14086 0.12802,-0.0888 0.74547,-0.53975 1.37212,-1.00216 z"
       id="path138535-1" />
    <path
       style="fill:#999999;fill-opacity:1;stroke-width:0.144393"
       d="m 96.67277,130.13316 c 0.34132,-0.26626 0.37549,-0.34232 0.18502,-0.41188 -0.36007,-0.1315 -0.28755,-0.83622 0.12661,-1.23038 0.78834,-0.75027 0.56734,-1.99064 -0.43578,-2.44589 -0.42702,-0.1938 -0.59974,-0.20308 -1.10399,-0.0593 -1.16781,0.33299 -1.48642,1.6093 -0.61527,2.4647 0.67616,0.66393 0.62186,1.08256 -0.18117,1.39679 -1.22625,0.47983 -2.15825,1.69455 -2.16507,2.8218 l -0.003,0.53778 1.88714,-1.37353 c 1.03792,-0.75544 2.07552,-1.52048 2.30576,-1.70009 z"
       id="path138529-0" />
    <path
       style="fill:#999999;fill-opacity:1;stroke-width:0.144393"
       d="m 99.43639,133.30969 c 0,-0.97568 -0.20227,-1.74316 -0.5875,-2.22922 l -0.26168,-0.33016 -2.23262,1.60607 c -1.22794,0.88334 -2.23576,1.65361 -2.23961,1.71171 -0.004,0.0581 1.1919,0.10565 2.65721,0.10565 h 2.6642 z"
       id="path138525-0" />
    <path
       style="fill:#999999;fill-opacity:1;stroke-width:0.144393"
       d="m 101.79449,136.01844 c 0.16835,-0.22502 0.30493,-0.46272 0.30351,-0.52824 -0.002,-0.0945 -1.651,-1.1182 -2.07004,-1.28516 -0.054,-0.0215 -0.18289,0.22982 -0.28637,0.55855 -0.10349,0.32872 -0.1288,0.6165 -0.0563,0.63951 0.0726,0.023 0.46249,0.25944 0.86655,0.52539 0.40405,0.26595 0.78006,0.48704 0.83557,0.49131 0.0555,0.004 0.23868,-0.17635 0.40704,-0.40136 z"
       id="path138509-9" />
    <path
       style="fill:#999999;fill-opacity:1;stroke-width:0.144393"
       d="m 91.56017,135.79882 0.77169,-0.55831 v -0.89385 c 0,-1.0287 0.13394,-1.04727 -1.59349,0.22087 l -1.22347,0.89816 0.45907,0.55163 c 0.28722,0.34513 0.52558,0.51199 0.63678,0.44571 0.0978,-0.0583 0.52498,-0.35715 0.94942,-0.66421 z"
       id="path138507-9" />
    <path
       style="fill:#999999;fill-opacity:1;stroke-width:0.144393"
       d="m 94.99606,138.70774 c 0,-0.0629 -0.18917,-0.64928 -0.42038,-1.30298 -0.23121,-0.65371 -0.46559,-1.36287 -0.52086,-1.57593 l -0.10048,-0.38738 h 1.92697 c 1.32703,0 1.92696,0.0493 1.92696,0.15824 0,0.087 -0.23312,0.82126 -0.51804,1.63162 -0.28492,0.81036 -0.51804,1.49982 -0.51804,1.53212 0,0.0323 0.36376,0.0588 0.80836,0.0588 h 0.80835 l 0.17157,-0.59867 c 0.0944,-0.32927 0.28915,-1.06449 0.43286,-1.63383 l 0.2613,-1.03516 -0.49641,-0.1974 c -0.73307,-0.2915 -5.093,-0.27809 -5.69365,0.0175 -0.24018,0.1182 -0.43668,0.2786 -0.43668,0.35645 0,0.0778 0.17473,0.80518 0.38829,1.61631 l 0.38829,1.47478 h 0.7958 c 0.43768,0 0.79579,-0.0515 0.79579,-0.11444 z"
       id="path138461-7" />
  </g>
</svg>
