<?xml version="1.0" encoding="UTF-8" standalone="no"?>
<!-- Created with Inkscape (http://www.inkscape.org/) -->

<svg
   width="17.307047mm"
   height="12.778057mm"
   viewBox="0 0 17.307047 12.778057"
   version="1.1"
   id="svg37298"
   inkscape:version="1.2.2 (732a01da63, 2022-12-09)"
   sodipodi:docname="SterringFault_active.svg"
   xmlns:inkscape="http://www.inkscape.org/namespaces/inkscape"
   xmlns:sodipodi="http://sodipodi.sourceforge.net/DTD/sodipodi-0.dtd"
   xmlns="http://www.w3.org/2000/svg"
   xmlns:svg="http://www.w3.org/2000/svg">
  <sodipodi:namedview
     id="namedview37300"
     pagecolor="#ffffff"
     bordercolor="#000000"
     borderopacity="0.25"
     inkscape:showpageshadow="2"
     inkscape:pageopacity="0.0"
     inkscape:pagecheckerboard="0"
     inkscape:deskcolor="#d1d1d1"
     inkscape:document-units="mm"
     showgrid="false"
     inkscape:zoom="4.2179991"
     inkscape:cx="4.3859659"
     inkscape:cy="85.585604"
     inkscape:window-width="1920"
     inkscape:window-height="1017"
     inkscape:window-x="-8"
     inkscape:window-y="-8"
     inkscape:window-maximized="1"
     inkscape:current-layer="layer1" />
  <defs
     id="defs37295" />
  <g
     inkscape:label="Warstwa 1"
     inkscape:groupmode="layer"
     id="layer1"
     transform="translate(-66.572284,-126.32065)">
    <path
       id="path138043-9"
       style="fill:#ffd500;fill-opacity:1;stroke-width:0.140092"
       d="m 73.630306,126.50895 c -2.839292,0.009 -5.52126,1.84886 -6.289229,4.54896 -0.181702,0.63887 -0.233789,1.2156 -0.189519,2.09676 0.0523,1.03999 0.134556,1.36283 0.571064,2.23762 0.789823,1.58283 2.094395,2.67966 3.925756,3.30106 0.556426,0.18879 1.062152,0.23494 2.227604,0.20404 1.347016,-0.0356 1.611756,-0.0859 2.478789,-0.4743 5.617141,-2.51528 4.865036,-10.23499 -1.14213,-11.72412 -0.525448,-0.13025 -1.056537,-0.19161 -1.582335,-0.19002 z m 0.09125,1.43744 c 1.294103,9.6e-4 1.51195,0.0395 2.205043,0.38555 0.954758,0.4767 1.890511,1.3778 2.323865,2.23812 0.368422,0.73144 0.600909,3.04635 0.30584,3.04635 -0.08529,0 -0.735987,-0.25301 -1.445962,-0.56252 -1.116978,-0.48697 -1.303525,-0.61683 -1.383791,-0.96465 -0.05104,-0.22108 -0.312118,-0.61084 -0.580089,-0.86588 -0.837608,-0.79714 -1.978328,-0.79945 -2.862844,-0.005 -0.274958,0.24681 -0.540693,0.64123 -0.590116,0.87642 -0.08032,0.38203 -0.235257,0.49322 -1.455488,1.04333 -0.751102,0.33863 -1.385282,0.6157 -1.409362,0.6157 -0.02407,0 -0.08659,-0.27193 -0.138881,-0.60417 v -4.8e-4 c -0.296196,-1.87981 0.951421,-3.96442 2.926518,-4.8904 0.564054,-0.26447 0.895478,-0.3136 2.105267,-0.31236 z m 1.644006,6.03355 1.188755,0.52242 c 0.653626,0.28724 1.24409,0.56915 1.312599,0.62671 0.23614,0.19839 -1.174581,1.44521 -2.066164,1.826 -1.04362,0.44574 -2.484367,0.57109 -3.483041,0.30283 -0.811092,-0.21787 -2.071723,-1.01094 -2.516394,-1.58335 -0.173736,-0.22363 -0.315866,-0.42914 -0.315866,-0.45625 0,-0.0271 0.610944,-0.31288 1.357719,-0.63522 l 1.35772,-0.58612 0.385055,0.28829 c 0.517554,0.38746 1.492356,0.38397 2.225598,-0.009 z" />
    <path
       style="fill:#ffd400;stroke-width:0.144393;fill-opacity:1"
       d="m 82.679447,135.1455 c 0.11839,-0.53464 0.82352,-6.52838 0.82352,-7.00009 0,-0.62167 -0.56886,-1.13478 -1.25809,-1.13478 -0.68053,0 -1.25809,0.51374 -1.25809,1.11907 0,0.47852 0.70689,6.52091 0.82077,7.0158 0.0516,0.22406 0.17972,0.31695 0.43732,0.31695 0.25841,0 0.3848,-0.0922 0.43457,-0.31695 z"
       id="path138079-2" />
    <path
       style="fill:#ffd400;stroke-width:0.144393;fill-opacity:1"
       d="m 83.186167,137.79174 c 0.17886,-0.34624 0.16901,-0.43079 -0.0886,-0.76075 -0.57093,-0.73112 -1.81774,-0.46274 -1.81246,0.39017 0.003,0.50178 0.17013,0.70996 0.6764,0.84309 0.5798,0.15249 0.98199,-0.003 1.2247,-0.47251 z"
       id="path138049-8" />
  </g>
  <g
     inkscape:groupmode="layer"
     id="layer2"
     inkscape:label="Warstwa 2" />
</svg>
