<?xml version="1.0" encoding="UTF-8" standalone="no"?>
<!-- Created with Inkscape (http://www.inkscape.org/) -->

<svg
   width="12.493755mm"
   height="10.29054mm"
   viewBox="0 0 12.493755 10.29054"
   version="1.1"
   id="svg15310"
   inkscape:version="1.2.2 (732a01da63, 2022-12-09)"
   sodipodi:docname="AntiFog_active.svg"
   xmlns:inkscape="http://www.inkscape.org/namespaces/inkscape"
   xmlns:sodipodi="http://sodipodi.sourceforge.net/DTD/sodipodi-0.dtd"
   xmlns="http://www.w3.org/2000/svg"
   xmlns:svg="http://www.w3.org/2000/svg">
  <sodipodi:namedview
     id="namedview15312"
     pagecolor="#ffffff"
     bordercolor="#000000"
     borderopacity="0.25"
     inkscape:showpageshadow="2"
     inkscape:pageopacity="0.0"
     inkscape:pagecheckerboard="0"
     inkscape:deskcolor="#d1d1d1"
     inkscape:document-units="mm"
     showgrid="false"
     inkscape:zoom="3.2391414"
     inkscape:cx="45.999844"
     inkscape:cy="50.013254"
     inkscape:window-width="1920"
     inkscape:window-height="1017"
     inkscape:window-x="-8"
     inkscape:window-y="-8"
     inkscape:window-maximized="1"
     inkscape:current-layer="layer1" />
  <defs
     id="defs15307" />
  <g
     inkscape:label="Warstwa 1"
     inkscape:groupmode="layer"
     id="layer1"
     transform="translate(-59.43627,-82.428864)">
    <path
       id="path138677-8"
       style="fill:#ffd500;fill-opacity:1;stroke-width:0.144393"
       d="m 67.898181,82.429077 c -0.01898,5.15e-4 -0.03727,0.0022 -0.05426,0.0047 -0.631719,0.0902 -1.444774,2.207437 -1.749764,4.555794 -0.13807,1.063129 -0.12652,1.457097 0.07028,2.375566 0.23331,1.088829 0.946517,2.749141 1.374076,3.198771 0.28109,0.29561 0.960921,0.166888 1.906861,-0.360701 1.525428,-0.85079 2.477812,-2.608796 2.484602,-4.586284 0.005,-1.460618 -0.369044,-2.498339 -1.286743,-3.569808 -0.640566,-0.747913 -2.156698,-1.633949 -2.745052,-1.617989 z m 0.123507,0.81132 c 0.740809,0 2.122765,1.196067 2.685624,2.324406 0.35585,0.713369 0.420932,1.020804 0.418062,1.971973 -0.005,1.710048 -0.658817,3.039058 -1.920296,3.903637 -0.950529,0.65146 -1.12459,0.636031 -1.53479,-0.134358 -0.873929,-1.641339 -1.085895,-3.478526 -0.631486,-5.470984 0.27075,-1.187209 0.803796,-2.594674 0.982886,-2.594674 z" />
    <path
       style="fill:#ffd500;fill-opacity:1;stroke-width:0.144393"
       d="m 63.22696,91.7486 c 0.31964,-0.51909 0.37741,-0.7574 0.32043,-1.32181 l -0.0695,-0.68855 0.97642,-0.32606 c 0.61159,-0.20423 0.97643,-0.40429 0.97643,-0.53543 0,-0.33555 -0.47788,-0.33229 -1.43905,0.01 -0.86943,0.30944 -0.90153,0.31108 -1.09739,0.0562 -0.2868,-0.37328 -0.25277,-0.61658 0.16681,-1.1928 0.27312,-0.37508 0.58045,-0.57471 1.18664,-0.77081 0.91002,-0.29439 1.15206,-0.48644 0.96876,-0.76871 -0.10277,-0.15825 -0.23143,-0.1548 -0.77268,0.0207 l -0.64937,0.21058 -0.37104,-0.74773 -0.37105,-0.74772 1.07888,-0.37449 c 1.14445,-0.39725 1.35945,-0.55599 1.09453,-0.80812 -0.12047,-0.11466 -0.45098,-0.0648 -1.23779,0.18672 -1.41264,0.45158 -1.44346,0.45824 -1.44346,0.31166 0,-0.0692 0.23079,-0.38245 0.51287,-0.69608 0.52318,-0.5817 0.53552,-0.74824 0.0554,-0.74824 -0.33706,0 -1.16034,1.05723 -1.16034,1.49008 0,0.25964 -0.15427,0.37583 -0.80804,0.60863 -0.44441,0.15825 -0.98263,0.32943 -1.19604,0.3804 -0.43626,0.10421 -0.63077,0.42244 -0.39521,0.64662 0.1096,0.10431 0.54022,0.0164 1.44331,-0.29457 1.02459,-0.35284 1.3308,-0.40873 1.50133,-0.27404 0.32739,0.25859 0.64658,0.92198 0.55403,1.15149 -0.0454,0.11268 -0.79426,0.44332 -1.66407,0.73476 -1.70266,0.57048 -1.9515,0.69763 -1.9515,0.99712 0,0.2834 0.43088,0.23916 1.53987,-0.15811 0.54069,-0.19368 1.04397,-0.35216 1.1184,-0.35216 0.0744,0 0.099,0.21317 0.0546,0.47371 -0.0444,0.26053 -6e-5,0.61723 0.0986,0.79266 0.22173,0.3943 0.1785,0.42373 -1.38502,0.94271 -1.13776,0.37766 -1.46373,0.62901 -1.17371,0.90502 0.0933,0.0888 0.6527,-0.0382 1.5892,-0.36086 0.79487,-0.27384 1.50488,-0.4628 1.5778,-0.41991 0.26214,0.15419 0.12846,1.01386 -0.23745,1.52702 -0.41705,0.58488 -0.45105,0.73702 -0.18502,0.82784 0.27052,0.0923 0.36214,0.013 0.79347,-0.6875 z"
       id="path138685-3" />
  </g>
  <g
     inkscape:groupmode="layer"
     id="layer6"
     inkscape:label="Warstwa 2"
     transform="translate(-59.43627,-82.428864)" />
</svg>
