<?xml version="1.0" encoding="UTF-8" standalone="no"?>
<!-- Created with Inkscape (http://www.inkscape.org/) -->

<svg
   width="324.6763mm"
   height="79.436371mm"
   viewBox="0 0 324.67632 79.43637"
   version="1.1"
   id="svg9624"
   inkscape:version="1.2.2 (732a01da63, 2022-12-09)"
   sodipodi:docname="otok.svg"
   xmlns:inkscape="http://www.inkscape.org/namespaces/inkscape"
   xmlns:sodipodi="http://sodipodi.sourceforge.net/DTD/sodipodi-0.dtd"
   xmlns="http://www.w3.org/2000/svg"
   xmlns:svg="http://www.w3.org/2000/svg">
  <sodipodi:namedview
     id="namedview9626"
     pagecolor="#ffffff"
     bordercolor="#000000"
     borderopacity="0.25"
     inkscape:showpageshadow="2"
     inkscape:pageopacity="0.0"
     inkscape:pagecheckerboard="0"
     inkscape:deskcolor="#d1d1d1"
     inkscape:document-units="mm"
     showgrid="false"
     inkscape:zoom="1"
     inkscape:cx="620"
     inkscape:cy="144"
     inkscape:window-width="2048"
     inkscape:window-height="1089"
     inkscape:window-x="-8"
     inkscape:window-y="-8"
     inkscape:window-maximized="1"
     inkscape:current-layer="layer2"
     inkscape:lockguides="true">
    <inkscape:grid
       type="xygrid"
       id="grid10197" />
  </sodipodi:namedview>
  <defs
     id="defs9621">
    <inkscape:path-effect
       effect="fillet_chamfer"
       id="path-effect2675"
       is_visible="true"
       lpeversion="1"
       nodesatellites_param="F,0,0,1,0,23.01875,0,1 @ F,0,0,1,0,23.01875,0,1 @ F,0,0,1,0,23.01875,0,1 @ F,0,0,1,0,23.01875,0,1"
       unit="px"
       method="auto"
       mode="F"
       radius="87"
       chamfer_steps="1"
       flexible="false"
       use_knot_distance="true"
       apply_no_radius="true"
       apply_with_radius="true"
       only_selected="false"
       hide_knots="false" />
    <inkscape:path-effect
       effect="fillet_chamfer"
       id="path-effect2673"
       is_visible="true"
       lpeversion="1"
       nodesatellites_param="C,0,0,1,0,31.220833,0,11 @ C,0,0,1,0,31.220833,0,11 @ C,0,0,1,0,31.220833,0,11 @ C,0,0,1,0,31.220833,0,11"
       unit="px"
       method="auto"
       mode="C"
       radius="118"
       chamfer_steps="11"
       flexible="false"
       use_knot_distance="true"
       apply_no_radius="true"
       apply_with_radius="true"
       only_selected="false"
       hide_knots="false" />
    <inkscape:path-effect
       effect="powerclip"
       id="path-effect12747"
       is_visible="true"
       lpeversion="1"
       inverse="true"
       flatten="false"
       hide_clip="false"
       message="Jeśli po konwersji przycięcia na ścieżki nie zostanie spłaszczony wynik, użyj reguły wypełniania w oknie dialogowym &lt;b&gt;wypełnienie i obrys&lt;/b&gt; ." />
    <clipPath
       clipPathUnits="userSpaceOnUse"
       id="clipPath12743">
      <path
         style="display:block;fill:#ffffff;fill-rule:evenodd;stroke:#454545;stroke-width:1;stroke-linecap:round;stroke-linejoin:round;stroke-dasharray:none;stroke-dashoffset:56.7201;stroke-opacity:1;paint-order:stroke fill markers"
         d="M 69.594551,73.458817 C 62.406433,80.973669 24.17871,151.22119 24.17871,151.22119 v 0"
         id="path12745"
         clip-path="none" />
    </clipPath>
    <clipPath
       clipPathUnits="userSpaceOnUse"
       id="clipPath12743-7">
      <path
         style="display:none;fill:#ffffff;fill-rule:evenodd;stroke:#454545;stroke-width:1;stroke-linecap:round;stroke-linejoin:round;stroke-dasharray:none;stroke-dashoffset:56.7201;stroke-opacity:1;paint-order:stroke fill markers"
         d="M 69.594551,73.458817 C 62.406433,80.973669 24.17871,151.22119 24.17871,151.22119 v 0"
         id="path12745-8"
         clip-path="none" />
      <path
         id="lpe_path-effect12747-8"
         style="fill:#ffffff;fill-rule:evenodd;stroke:#454545;stroke-width:1;stroke-linecap:round;stroke-linejoin:round;stroke-dasharray:none;stroke-dashoffset:56.7201;stroke-opacity:1;paint-order:stroke fill markers"
         class="powerclip"
         d="M 12.317324,88.38951 H 197.68268 v 48.66653 H 12.317324 Z m 11.861386,62.83168 v 0 c 0,0 38.227723,-70.247521 45.415841,-77.762373" />
    </clipPath>
    <inkscape:path-effect
       effect="powerclip"
       id="path-effect12747-9"
       is_visible="true"
       lpeversion="1"
       inverse="true"
       flatten="false"
       hide_clip="false"
       message="Jeśli po konwersji przycięcia na ścieżki nie zostanie spłaszczony wynik, użyj reguły wypełniania w oknie dialogowym &lt;b&gt;wypełnienie i obrys&lt;/b&gt; ." />
    <clipPath
       clipPathUnits="userSpaceOnUse"
       id="clipath_lpe_path-effect12747-9">
      <path
         style="display:block;fill:#ffffff;fill-rule:evenodd;stroke:#454545;stroke-width:1;stroke-linecap:round;stroke-linejoin:round;stroke-dasharray:none;stroke-dashoffset:56.7201;stroke-opacity:1;paint-order:stroke fill markers"
         d="M 69.594551,73.458817 C 62.406433,80.973669 24.17871,151.22119 24.17871,151.22119 v 0"
         id="path13514"
         clip-path="none" />
    </clipPath>
  </defs>
  <g
     inkscape:groupmode="layer"
     id="layer2"
     inkscape:label="Warstwa 2"
     style="display:inline"
     transform="translate(-42.983172,-10.264674)">
    <path
       id="path7981"
       style="fill:none;fill-opacity:1;fill-rule:evenodd;stroke:#00b200;stroke-width:0.6;stroke-linecap:round;stroke-linejoin:round;stroke-dasharray:none;stroke-dashoffset:259.807;stroke-opacity:1;paint-order:stroke fill markers"
       d="m 142.70162,11.379446 a 75.615937,75.615937 0 0 0 -42.13282,12.82609 l -30.779517,20.65352 c -0.26392,0.2665 -0.52498,0.53259 -0.78341,0.7984 -0.2586,0.26598 -0.51444,0.53209 -0.7674,0.79737 -0.25296,0.26528 -0.50315,0.52971 -0.75034,0.79427 -0.24719,0.26455 -0.49148,0.52889 -0.73277,0.79271 -0.24128,0.26382 -0.47944,0.52759 -0.71468,0.79065 -0.23525,0.26306 -0.46752,0.52526 -0.6966,0.78755 -0.22908,0.26229 -0.45522,0.5245 -0.678,0.786 -0.22277,0.2615 -0.44253,0.52271 -0.65887,0.78341 -0.21634,0.2607 -0.42947,0.52096 -0.63924,0.78083 -0.20977,0.25988 -0.41602,0.51921 -0.61908,0.77825 -0.20307,0.25904 -0.4027,0.51748 -0.59893,0.77566 -0.19623,0.25819 -0.389,0.51629 -0.57826,0.7736 -0.18926,0.25731 -0.37492,0.51407 -0.55707,0.7705 -0.18216,0.25642 -0.36097,0.51239 -0.53589,0.76791 -0.17492,0.25552 -0.34611,0.51073 -0.51366,0.76533 -0.16755,0.2546 -0.3314,0.50856 -0.49145,0.76222 -0.16005,0.25367 -0.31629,0.50694 -0.4687,0.75965 -0.15242,0.25271 -0.30081,0.5048 -0.44545,0.75654 -0.14465,0.25174 -0.28545,0.50321 -0.4222,0.75396 -0.13674,0.25075 -0.26971,0.5006 -0.39842,0.75034 -0.12871,0.24975 -0.25308,0.49903 -0.37362,0.74776 -0.12054,0.24872 -0.2371,0.49697 -0.34934,0.74466 -0.11224,0.24768 -0.2202,0.49492 -0.32401,0.74155 -0.1038,0.24664 -0.20345,0.4929 -0.29869,0.73846 -0.0952,0.24556 -0.18631,0.49036 -0.27285,0.73484 -0.0865,0.24447 -0.16828,0.48837 -0.24598,0.73174 -0.0777,0.24337 -0.15141,0.48639 -0.22014,0.72863 -0.0687,0.24225 -0.1326,0.48391 -0.19224,0.72502 -0.0596,0.24112 -0.11496,0.48145 -0.16536,0.72141 -0.0252,0.11998 -0.049,0.23998 -0.0718,0.35967 -0.0229,0.11968 -0.0446,0.23924 -0.0651,0.35863 -0.0205,0.11939 -0.0397,0.2385 -0.0579,0.3576 -0.0181,0.1191 -0.0354,0.23829 -0.0512,0.35709 -0.0158,0.11879 -0.03,0.23755 -0.0434,0.35605 -0.0134,0.11849 -0.0257,0.23682 -0.0367,0.35501 -0.0109,0.1182 -0.0209,0.23609 -0.0295,0.35399 -0.009,0.11789 -0.0156,0.23536 -0.0217,0.35295 -0.006,0.11758 -0.0109,0.23515 -0.0145,0.35243 -0.004,0.11728 -0.006,0.23443 -0.007,0.3514 -10e-4,0.11697 -8.7e-4,0.23371 5.1e-4,0.35037 0.001,0.11665 0.004,0.2335 0.008,0.34985 0.004,0.11634 0.009,0.23227 0.0155,0.34829 0.006,0.11603 0.0143,0.23208 0.0232,0.34779 0.009,0.1157 0.0195,0.23136 0.031,0.34675 0.0115,0.11538 0.0241,0.23013 0.0382,0.34519 0.0141,0.11507 0.0298,0.22995 0.0465,0.34469 0.0167,0.11473 0.0344,0.22975 0.0537,0.34416 0.0194,0.11441 0.04,0.22854 0.062,0.34262 0.022,0.11408 0.0457,0.22783 0.0703,0.34158 0.0246,0.11375 0.0502,0.22765 0.0775,0.34106 0.0273,0.11342 0.0563,0.22643 0.0863,0.33952 0.03,0.11308 0.0614,0.22573 0.094,0.33848 0.0327,0.11274 0.0664,0.22556 0.1018,0.33796 0.0354,0.1124 0.0725,0.22487 0.11059,0.33693 0.0381,0.11206 0.0775,0.22366 0.11834,0.33538 0.0409,0.11172 0.083,0.22349 0.1266,0.33486 0.0436,0.11138 0.089,0.22229 0.1354,0.33332 0.0464,0.11102 0.0939,0.22212 0.14314,0.33279 0.0492,0.11068 0.0999,0.22093 0.15193,0.33125 0.052,0.11032 0.10584,0.22076 0.16071,0.33073 0.0549,0.10997 0.11074,0.21956 0.16847,0.32918 0.0577,0.10961 0.11717,0.21889 0.17776,0.32814 0.0606,0.10926 0.12256,0.21874 0.18604,0.32763 0.0635,0.10889 0.12845,0.21755 0.19482,0.32608 0.0664,0.10853 0.13432,0.21688 0.20361,0.32504 0.0693,0.10817 0.13965,0.21621 0.21187,0.32402 0.0722,0.1078 0.146,0.21502 0.22117,0.32246 0.0752,0.10743 0.15183,0.21488 0.22996,0.32194 0.0781,0.10706 0.15814,0.21371 0.23927,0.32039 0.0811,0.10669 0.16341,0.21357 0.24753,0.31988 0.0841,0.10631 0.16969,0.21239 0.25683,0.31833 0.0871,0.10593 0.17596,0.21173 0.26613,0.31729 0.0902,0.10556 0.1817,0.21057 0.27492,0.31574 0.0932,0.10518 0.18794,0.21044 0.28422,0.31523 0.0963,0.10479 0.19416,0.20927 0.29352,0.31368 0.0994,0.1044 0.20036,0.20862 0.30283,0.31264 0.10246,0.10402 0.20654,0.20798 0.31212,0.31161 0.10558,0.10363 0.21271,0.20682 0.32143,0.31006 0.10871,0.10324 0.21886,0.20618 0.33073,0.30902 0.11186,0.10285 0.22552,0.20554 0.34055,0.30799 0.11503,0.10245 0.23163,0.20491 0.34985,0.30696 0.11821,0.10205 0.23774,0.20376 0.35915,0.30541 0.12141,0.10165 0.24486,0.20312 0.36948,0.30437 0.12463,0.10125 0.25042,0.2025 0.37827,0.30334 0.12786,0.10085 0.2575,0.20135 0.38861,0.30179 0.13111,0.10044 0.26405,0.20073 0.39843,0.30076 0.13437,0.10003 0.27007,0.2001 0.40772,0.29972 0.13766,0.09963 0.27711,0.19897 0.41807,0.29818 0.14095,0.09921 0.28361,0.19783 0.42788,0.29662 0.28854,0.19759 0.58383,0.39474 0.88573,0.59066 0.30191,0.19592 0.61064,0.39075 0.92604,0.58498 0.3154,0.19423 0.63732,0.3878 0.96635,0.58032 0.25513,0.14929 0.51796,0.29772 0.78135,0.44597 l 267.720087,0.39894 a 6.9926201,6.9926201 0 0 0 3.90829,-12.79818 l -78.02332,-52.39112 a 75.572162,75.572162 0 0 0 -42.12869,-12.83229 z"
       clip-path="none" />
    <path
       style="display:inline;fill:none;fill-opacity:1;fill-rule:evenodd;stroke:#00b200;stroke-width:0.600001;stroke-linecap:round;stroke-linejoin:round;stroke-dasharray:none;stroke-dashoffset:981.946;stroke-opacity:1;paint-order:stroke fill markers"
       d="m 292.20812,44.558873 c 16.90253,17.066851 22.66858,32.741642 -0.15945,44.842172 v 0"
       id="path7955-2"
       sodipodi:nodetypes="ccc"
       clip-path="none" />
  </g>
  <g
     inkscape:label="Warstwa 1"
     inkscape:groupmode="layer"
     id="layer1"
     transform="translate(-3.6383373,-100.17117)"
     style="display:inline" />
</svg>
