<?xml version="1.0" encoding="UTF-8" standalone="no"?>
<!-- Created with Inkscape (http://www.inkscape.org/) -->

<svg
   width="7.5515275mm"
   height="8.4815817mm"
   viewBox="0 0 7.5515275 8.4815817"
   version="1.1"
   id="svg4509"
   inkscape:version="1.2.2 (732a01da63, 2022-12-09)"
   sodipodi:docname="PetrolNormalState.svg"
   xmlns:inkscape="http://www.inkscape.org/namespaces/inkscape"
   xmlns:sodipodi="http://sodipodi.sourceforge.net/DTD/sodipodi-0.dtd"
   xmlns="http://www.w3.org/2000/svg"
   xmlns:svg="http://www.w3.org/2000/svg">
  <sodipodi:namedview
     id="namedview4511"
     pagecolor="#ffffff"
     bordercolor="#000000"
     borderopacity="0.25"
     inkscape:showpageshadow="2"
     inkscape:pageopacity="0.0"
     inkscape:pagecheckerboard="0"
     inkscape:deskcolor="#d1d1d1"
     inkscape:document-units="mm"
     showgrid="false"
     inkscape:zoom="18.323351"
     inkscape:cx="30.698534"
     inkscape:cy="16.0451"
     inkscape:window-width="2048"
     inkscape:window-height="1089"
     inkscape:window-x="2040"
     inkscape:window-y="-8"
     inkscape:window-maximized="1"
     inkscape:current-layer="layer1" />
  <defs
     id="defs4506" />
  <g
     inkscape:label="Warstwa 1"
     inkscape:groupmode="layer"
     id="layer1"
     transform="translate(-63.720111,-139.76091)"
     style="display:inline">
    <path
       id="rect1354"
       style="fill:#ffffff;fill-opacity:1;fill-rule:evenodd;stroke:none;stroke-width:0.568165;stroke-linecap:round;stroke-linejoin:round;stroke-dashoffset:981.946;stroke-opacity:1;paint-order:stroke fill markers"
       d="m 65.561651,139.76091 a 0.47985364,0.5232645 0 0 0 -0.47986,0.52326 v 7.43507 a 0.47985364,0.5232645 0 0 0 0.47986,0.52325 h 2.29149 1.33178 a 0.47985364,0.5232645 0 0 0 0.47984,-0.52325 v -7.43507 a 0.47985364,0.5232645 0 0 0 -0.47984,-0.52326 h -1.33178 -0.95971 z m 0.12277,0.85644 h 1.68886 1.68933 v 1.99903 h -1.68933 -1.68886 z" />
    <g
       id="g1467"
       transform="matrix(0.93722323,0,0,0.54270451,-53.638504,77.72782)"
       style="fill:#ffffff;fill-opacity:1">
      <rect
         style="fill:#ffffff;fill-opacity:1;fill-rule:evenodd;stroke:none;stroke-width:0.600001;stroke-linecap:round;stroke-linejoin:round;stroke-dashoffset:981.946;stroke-opacity:1;paint-order:stroke fill markers"
         id="rect1464"
         width="8.0573416"
         height="1.0974158"
         x="125.21949"
         y="128.83456"
         rx="51.150425"
         ry="2.083534e-14" />
    </g>
    <path
       style="fill:none;fill-opacity:1;fill-rule:evenodd;stroke:#fffefb;stroke-width:0.436;stroke-linecap:round;stroke-linejoin:round;stroke-dasharray:none;stroke-dashoffset:981.946;stroke-opacity:1;paint-order:stroke fill markers"
       d="m 68.518212,143.01145 c 1.75818,-0.0174 1.75818,0.0174 1.75818,0.0174 v 3.11914 h 0.747425 l -0.03513,-3.93116 -0.943534,-0.80419"
       id="path1525"
       sodipodi:nodetypes="cccccc" />
  </g>
</svg>
