<?xml version="1.0" encoding="UTF-8" standalone="no"?>
<!-- Created with Inkscape (http://www.inkscape.org/) -->

<svg
   width="166.71373"
   height="101.8044"
   viewBox="0 0 44.109673 26.935747"
   version="1.1"
   id="svg1"
   xmlns="http://www.w3.org/2000/svg"
   xmlns:svg="http://www.w3.org/2000/svg">
  <defs
     id="defs1" />
  <g
     id="layer1"
     transform="translate(-17.893505,-18.943264)">
    <g
       id="g49"
       transform="translate(6.6984568,13.749544)">
      <path
         id="path44"
         style="fill:none;stroke:#000000;stroke-width:1.32292;stroke-linecap:butt;stroke-linejoin:miter;stroke-dasharray:none;stroke-opacity:1"
         d="m 33.224245,10.007343 a 30.075612,29.727331 0 0 0 -21.089473,8.6379 l 12.54581,12.545809 a 12.158359,12.158359 0 0 1 8.543663,-3.615165 12.158359,12.158359 0 0 1 8.596796,3.561029 l 12.542801,-12.5418 A 30.075612,29.727331 0 0 0 33.224245,10.007343 Z" />
      <g
         id="g48"
         transform="translate(8.1423516,-6.004473)">
        <path
           id="path45"
           style="fill:none;fill-opacity:1;stroke:#000000;stroke-width:0.79375;stroke-dasharray:none;stroke-opacity:1"
           d="m 15.046293,29.760317 c 0,0 -1.126799,-0.759481 -1.126825,-2.278982 -3.8e-5,-2.243392 2.253473,-2.315627 2.253473,-4.558576 0,-2.243164 -2.253435,-2.31493 -2.253473,-4.557952 -3.8e-5,-2.243394 2.253473,-2.315628 2.253473,-4.558577 0,-1.519321 -1.126648,-2.278976 -1.126648,-2.278976" />
        <path
           id="path46"
           style="fill:none;fill-opacity:1;stroke:#000000;stroke-width:0.79375;stroke-dasharray:none;stroke-opacity:1"
           d="m 21.753846,29.760317 c 0,0 -1.1268,-0.759481 -1.126826,-2.278982 -3.8e-5,-2.243392 2.253473,-2.315627 2.253473,-4.558576 0,-2.243164 -2.253435,-2.31493 -2.253473,-4.557952 -3.8e-5,-2.243394 2.253473,-2.315628 2.253473,-4.558577 0,-1.519321 -1.126647,-2.278976 -1.126647,-2.278976" />
        <path
           id="path47"
           style="fill:none;fill-opacity:1;stroke:#000000;stroke-width:0.79375;stroke-dasharray:none;stroke-opacity:1"
           d="m 28.461399,29.760317 c 0,0 -1.1268,-0.759481 -1.126826,-2.278982 -3.7e-5,-2.243392 2.253473,-2.315627 2.253473,-4.558576 0,-2.243164 -2.253435,-2.31493 -2.253473,-4.557952 -3.7e-5,-2.243394 2.253473,-2.315628 2.253473,-4.558577 0,-1.519321 -1.126647,-2.278976 -1.126647,-2.278976" />
        <path
           id="path48"
           style="fill:none;fill-opacity:1;stroke:#000000;stroke-width:0.79375;stroke-dasharray:none;stroke-opacity:1"
           d="m 35.168951,29.760317 c 0,0 -1.126799,-0.759481 -1.126825,-2.278982 -3.8e-5,-2.243392 2.253472,-2.315627 2.253472,-4.558576 0,-2.243164 -2.253435,-2.31493 -2.253472,-4.557952 -3.8e-5,-2.243394 2.253472,-2.315628 2.253472,-4.558577 0,-1.519321 -1.126647,-2.278976 -1.126647,-2.278976" />
      </g>
    </g>
  </g>
</svg>
