<?xml version="1.0" encoding="UTF-8" standalone="no"?>
<!-- Created with Inkscape (http://www.inkscape.org/) -->

<svg
   width="139.90215"
   height="94.816475"
   viewBox="0 0 37.015775 25.086859"
   version="1.1"
   id="svg1"
   xmlns="http://www.w3.org/2000/svg"
   xmlns:svg="http://www.w3.org/2000/svg">
  <defs
     id="defs1" />
  <g
     id="layer1"
     transform="translate(-36.200169,39.581012)">
    <g
       id="g39"
       transform="translate(29.600521,-44.583572)">
      <rect
         style="fill:none;fill-opacity:1;stroke:#000000;stroke-width:1.32292;stroke-dasharray:none;stroke-opacity:1"
         id="rect15"
         width="35.692856"
         height="20.859863"
         x="7.2611051"
         y="5.6640196"
         ry="4.7115192" />
      <g
         id="g35">
        <path
           id="path27"
           style="fill:none;fill-opacity:1;stroke:#000000;stroke-width:0.79375;stroke-dasharray:none;stroke-opacity:1"
           d="m 15.046293,29.760317 c 0,0 -1.126799,-0.759481 -1.126825,-2.278982 -3.8e-5,-2.243392 2.253473,-2.315627 2.253473,-4.558576 0,-2.243164 -2.253435,-2.31493 -2.253473,-4.557952 -3.8e-5,-2.243394 2.253473,-2.315628 2.253473,-4.558577 0,-1.519321 -1.126648,-2.278976 -1.126648,-2.278976" />
        <path
           id="path28"
           style="fill:none;fill-opacity:1;stroke:#000000;stroke-width:0.79375;stroke-dasharray:none;stroke-opacity:1"
           d="m 21.753846,29.760317 c 0,0 -1.1268,-0.759481 -1.126826,-2.278982 -3.8e-5,-2.243392 2.253473,-2.315627 2.253473,-4.558576 0,-2.243164 -2.253435,-2.31493 -2.253473,-4.557952 -3.8e-5,-2.243394 2.253473,-2.315628 2.253473,-4.558577 0,-1.519321 -1.126647,-2.278976 -1.126647,-2.278976" />
        <path
           id="path29"
           style="fill:none;fill-opacity:1;stroke:#000000;stroke-width:0.79375;stroke-dasharray:none;stroke-opacity:1"
           d="m 28.461399,29.760317 c 0,0 -1.1268,-0.759481 -1.126826,-2.278982 -3.7e-5,-2.243392 2.253473,-2.315627 2.253473,-4.558576 0,-2.243164 -2.253435,-2.31493 -2.253473,-4.557952 -3.7e-5,-2.243394 2.253473,-2.315628 2.253473,-4.558577 0,-1.519321 -1.126647,-2.278976 -1.126647,-2.278976" />
        <path
           id="path30"
           style="fill:none;fill-opacity:1;stroke:#000000;stroke-width:0.79375;stroke-dasharray:none;stroke-opacity:1"
           d="m 35.168951,29.760317 c 0,0 -1.126799,-0.759481 -1.126825,-2.278982 -3.8e-5,-2.243392 2.253472,-2.315627 2.253472,-4.558576 0,-2.243164 -2.253435,-2.31493 -2.253472,-4.557952 -3.8e-5,-2.243394 2.253472,-2.315628 2.253472,-4.558577 0,-1.519321 -1.126647,-2.278976 -1.126647,-2.278976" />
      </g>
    </g>
  </g>
</svg>
